<svg width="2811" height="771" xmlns="http://www.w3.org/2000/svg" xmlns:xlink="http://www.w3.org/1999/xlink" overflow="hidden"><defs><clipPath id="clip0"><rect x="733" y="260" width="2811" height="771"/></clipPath><clipPath id="clip1"><rect x="733" y="259" width="2810" height="771"/></clipPath><clipPath id="clip2"><rect x="1057" y="310" width="2378" height="484"/></clipPath><clipPath id="clip3"><rect x="733" y="259" width="2810" height="771"/></clipPath><clipPath id="clip4"><rect x="733" y="259" width="2810" height="771"/></clipPath><clipPath id="clip5"><rect x="733" y="259" width="2810" height="771"/></clipPath><clipPath id="clip6"><rect x="733" y="259" width="2810" height="771"/></clipPath><clipPath id="clip7"><rect x="733" y="259" width="2810" height="771"/></clipPath><clipPath id="clip8"><rect x="733" y="259" width="2810" height="771"/></clipPath><clipPath id="clip9"><rect x="733" y="259" width="2810" height="771"/></clipPath><clipPath id="clip10"><rect x="733" y="259" width="2810" height="771"/></clipPath><clipPath id="clip11"><rect x="733" y="259" width="2810" height="771"/></clipPath><clipPath id="clip12"><rect x="733" y="259" width="2810" height="771"/></clipPath><clipPath id="clip13"><rect x="733" y="259" width="2810" height="771"/></clipPath><clipPath id="clip14"><rect x="733" y="259" width="2810" height="771"/></clipPath><clipPath id="clip15"><rect x="733" y="259" width="2810" height="771"/></clipPath><clipPath id="clip16"><rect x="733" y="259" width="2810" height="771"/></clipPath></defs><g clip-path="url(#clip0)" transform="translate(-733 -260)"><g clip-path="url(#clip1)"><path d="M1396.55 310.5 1396.55 790.5M1735.56 310.5 1735.56 790.5M2075.57 310.5 2075.57 790.5M2414.58 310.5 2414.58 790.5M2753.59 310.5 2753.59 790.5M3092.6 310.5 3092.6 790.5M3432.5 310.5 3432.5 790.5" stroke="#D9D9D9" stroke-width="3.4375" stroke-linejoin="round" stroke-miterlimit="10" fill="none"/></g><g clip-path="url(#clip2)"><path d="M3093.1 724.024 1057 724.024 1057 697.023 3093.1 697.023ZM2564.08 564.018 1057 564.018 1057 537.018 2564.08 537.018ZM3235.11 404.013 1057 404.013 1057 377.012 3235.11 377.012Z" fill="#4472C4"/></g><g clip-path="url(#clip3)"><path d="M0 0 0.000360892 480" stroke="#D9D9D9" stroke-width="3.4375" stroke-linejoin="round" stroke-miterlimit="10" fill="none" fill-rule="evenodd" transform="matrix(1 0 0 -1 1057.5 790.5)"/></g><g clip-path="url(#clip4)"><text fill="#595959" font-family="Arial,Arial_MSFontService,sans-serif" font-weight="400" font-size="55" transform="matrix(1 0 0 1 1042.09 874)">0</text></g><g clip-path="url(#clip5)"><text fill="#595959" font-family="Arial,Arial_MSFontService,sans-serif" font-weight="400" font-size="55" transform="matrix(1 0 0 1 1350.86 874)">500</text></g><g clip-path="url(#clip6)"><text fill="#595959" font-family="Arial,Arial_MSFontService,sans-serif" font-weight="400" font-size="55" transform="matrix(1 0 0 1 1674.89 874)">1000</text></g><g clip-path="url(#clip7)"><text fill="#595959" font-family="Arial,Arial_MSFontService,sans-serif" font-weight="400" font-size="55" transform="matrix(1 0 0 1 2014.16 874)">1500</text></g><g clip-path="url(#clip8)"><text fill="#595959" font-family="Arial,Arial_MSFontService,sans-serif" font-weight="400" font-size="55" transform="matrix(1 0 0 1 2353.44 874)">2000</text></g><g clip-path="url(#clip9)"><text fill="#595959" font-family="Arial,Arial_MSFontService,sans-serif" font-weight="400" font-size="55" transform="matrix(1 0 0 1 2692.71 874)">2500</text></g><g clip-path="url(#clip10)"><text fill="#595959" font-family="Arial,Arial_MSFontService,sans-serif" font-weight="400" font-size="55" transform="matrix(1 0 0 1 3031.99 874)">3000</text></g><g clip-path="url(#clip11)"><text fill="#595959" font-family="Arial,Arial_MSFontService,sans-serif" font-weight="400" font-size="55" transform="matrix(1 0 0 1 3371.27 874)">3500</text></g><g clip-path="url(#clip12)"><text fill="#595959" font-family="Arial,Arial_MSFontService,sans-serif" font-weight="400" font-size="55" transform="matrix(1 0 0 1 763.125 728)">August 25</text></g><g clip-path="url(#clip13)"><text fill="#595959" font-family="Arial,Arial_MSFontService,sans-serif" font-weight="400" font-size="55" transform="matrix(1 0 0 1 763.125 568)">August 26</text></g><g clip-path="url(#clip14)"><text fill="#595959" font-family="Arial,Arial_MSFontService,sans-serif" font-weight="400" font-size="55" transform="matrix(1 0 0 1 763.125 408)">August 27</text></g><g clip-path="url(#clip15)"><rect x="1855" y="945" width="28.0002" height="28.0002" fill="#4472C4"/></g><g clip-path="url(#clip16)"><text fill="#595959" font-family="Arial,Arial_MSFontService,sans-serif" font-weight="400" font-size="55" transform="matrix(1 0 0 1 1894.89 977)">Vaccinated Individuals</text></g></g></svg>