<svg width="10116" height="3787" xmlns="http://www.w3.org/2000/svg" xmlns:xlink="http://www.w3.org/1999/xlink" overflow="hidden"><defs><clipPath id="clip0"><rect x="-2080" y="-2120" width="10116" height="3787"/></clipPath><clipPath id="clip1"><rect x="-2080" y="-2119" width="10115" height="3786"/></clipPath><clipPath id="clip2"><rect x="-1125" y="-2026" width="8880" height="2756"/></clipPath><clipPath id="clip3"><rect x="-2080" y="-2119" width="10115" height="3786"/></clipPath><clipPath id="clip4"><rect x="-2080" y="-2119" width="10115" height="3786"/></clipPath><clipPath id="clip5"><rect x="-2080" y="-2119" width="10115" height="3786"/></clipPath><clipPath id="clip6"><rect x="-2080" y="-2119" width="10115" height="3786"/></clipPath><clipPath id="clip7"><rect x="-2080" y="-2119" width="10115" height="3786"/></clipPath><clipPath id="clip8"><rect x="-2080" y="-2119" width="10115" height="3786"/></clipPath><clipPath id="clip9"><rect x="-2080" y="-2119" width="10115" height="3786"/></clipPath><clipPath id="clip10"><rect x="-2080" y="-2119" width="10115" height="3786"/></clipPath><clipPath id="clip11"><rect x="-2080" y="-2119" width="10115" height="3786"/></clipPath><clipPath id="clip12"><rect x="-2080" y="-2119" width="10115" height="3786"/></clipPath><clipPath id="clip13"><rect x="-2080" y="-2119" width="10115" height="3786"/></clipPath><clipPath id="clip14"><rect x="-2080" y="-2119" width="10115" height="3786"/></clipPath><clipPath id="clip15"><rect x="-2080" y="-2119" width="10115" height="3786"/></clipPath><clipPath id="clip16"><rect x="-2080" y="-2119" width="10115" height="3786"/></clipPath></defs><g clip-path="url(#clip0)" transform="translate(2080 2120)"><g clip-path="url(#clip1)"><path d="M353.512-2026.5 353.512 727.5M1833.56-2026.5 1833.56 727.5M3313.61-2026.5 3313.61 727.5M4792.66-2026.5 4792.66 727.5M6272.71-2026.5 6272.71 727.5M7752.5-2026.5 7752.5 727.5" stroke="#D9D9D9" stroke-width="3.4375" stroke-linejoin="round" stroke-miterlimit="10" fill="none"/></g><g clip-path="url(#clip2)"><path d="M3313.11 441.014-1126 441.014-1126 326.011 3313.11 326.011ZM4793.16-248.008-1126-248.008-1126-363.012 4793.16-363.012ZM5533.18-936.031-1126-936.031-1126-1051.03 5533.18-1051.03ZM6272.21-1624.05-1126-1624.05-1126-1739.06 6272.21-1739.06Z" fill="#4472C4"/></g><g clip-path="url(#clip3)"><path d="M0 0 0.000360892 2754" stroke="#D9D9D9" stroke-width="3.4375" stroke-linejoin="round" stroke-miterlimit="10" fill="none" fill-rule="evenodd" transform="matrix(1 0 0 -1 -1125.5 727.5)"/></g><g clip-path="url(#clip4)"><text fill="#595959" font-family="Arial,Arial_MSFontService,sans-serif" font-weight="400" font-size="202" transform="matrix(1 0 0 1 -1181.74 1032)">0</text></g><g clip-path="url(#clip5)"><text fill="#595959" font-family="Arial,Arial_MSFontService,sans-serif" font-weight="400" font-size="202" transform="matrix(1 0 0 1 129.682 1032)">1000</text></g><g clip-path="url(#clip6)"><text fill="#595959" font-family="Arial,Arial_MSFontService,sans-serif" font-weight="400" font-size="202" transform="matrix(1 0 0 1 1609.34 1032)">2000</text></g><g clip-path="url(#clip7)"><text fill="#595959" font-family="Arial,Arial_MSFontService,sans-serif" font-weight="400" font-size="202" transform="matrix(1 0 0 1 3089 1032)">3000</text></g><g clip-path="url(#clip8)"><text fill="#595959" font-family="Arial,Arial_MSFontService,sans-serif" font-weight="400" font-size="202" transform="matrix(1 0 0 1 4568.65 1032)">4000</text></g><g clip-path="url(#clip9)"><text fill="#595959" font-family="Arial,Arial_MSFontService,sans-serif" font-weight="400" font-size="202" transform="matrix(1 0 0 1 6048.31 1032)">5000</text></g><g clip-path="url(#clip10)"><text fill="#595959" font-family="Arial,Arial_MSFontService,sans-serif" font-weight="400" font-size="202" transform="matrix(1 0 0 1 7527.97 1032)">6000</text></g><g clip-path="url(#clip11)"><text fill="#595959" font-family="Arial,Arial_MSFontService,sans-serif" font-weight="700" font-size="202" transform="matrix(1 0 0 1 -1848.32 448)">Aklan</text></g><g clip-path="url(#clip12)"><text fill="#595959" font-family="Arial,Arial_MSFontService,sans-serif" font-weight="700" font-size="202" transform="matrix(1 0 0 1 -1837 -241)">Capiz</text></g><g clip-path="url(#clip13)"><text fill="#595959" font-family="Arial,Arial_MSFontService,sans-serif" font-weight="700" font-size="202" transform="matrix(1 0 0 1 -2049.66 -929)">Antique</text></g><g clip-path="url(#clip14)"><text fill="#595959" font-family="Arial,Arial_MSFontService,sans-serif" font-weight="700" font-size="202" transform="matrix(1 0 0 1 -1769.64 -1617)">Iloilo</text></g><g clip-path="url(#clip15)"><rect x="1927" y="1464" width="101" height="101" fill="#4472C4"/></g><g clip-path="url(#clip16)"><text fill="#595959" font-family="Arial,Arial_MSFontService,sans-serif" font-weight="400" font-size="202" transform="matrix(1 0 0 1 2077.33 1579)">Vaccinated Individuals</text></g></g></svg>